<?xml version="1.0" encoding="UTF-8" standalone="no"?>
<svg
   xmlns:dc="http://purl.org/dc/elements/1.1/"
   xmlns:cc="http://creativecommons.org/ns#"
   xmlns:rdf="http://www.w3.org/1999/02/22-rdf-syntax-ns#"
   xmlns:svg="http://www.w3.org/2000/svg"
   xmlns="http://www.w3.org/2000/svg"
   xmlns:xlink="http://www.w3.org/1999/xlink"
   xmlns:sodipodi="http://sodipodi.sourceforge.net/DTD/sodipodi-0.dtd"
   xmlns:inkscape="http://www.inkscape.org/namespaces/inkscape"
   id="Layer_1"
   viewBox="0 0 38.655518 38.66"
   width="788.88812"
   height="788.88812"
   version="1.1"
   sodipodi:docname="docker.svg"
   inkscape:version="0.92.4 (5da689c313, 2019-01-14)">
  <metadata
     id="metadata20">
    <rdf:RDF>
      <cc:Work
         rdf:about="">
        <dc:format>image/svg+xml</dc:format>
        <dc:type
           rdf:resource="http://purl.org/dc/dcmitype/StillImage" />
        <dc:title>Group 3</dc:title>
      </cc:Work>
    </rdf:RDF>
  </metadata>
  <sodipodi:namedview
     pagecolor="#ffffff"
     bordercolor="#666666"
     borderopacity="1"
     objecttolerance="10"
     gridtolerance="10"
     guidetolerance="10"
     inkscape:pageopacity="0"
     inkscape:pageshadow="2"
     inkscape:window-width="1080"
     inkscape:window-height="1857"
     id="namedview18"
     showgrid="false"
     inkscape:zoom="0.1156"
     inkscape:cx="-1974.3437"
     inkscape:cy="247.93043"
     inkscape:window-x="1912"
     inkscape:window-y="215"
     inkscape:window-maximized="1"
     inkscape:current-layer="Layer_1" />
  <style
     id="style2">.st0{fill:#061d2f}.st1{clip-path:url(#SVGID_4_)}</style>
  <title
     id="title4">Group 3</title>
  <path
     id="SVGID_1_"
     class="st0"
     d="m 7.7528977,27.83 c -1.1,0 -2.1,-0.9 -2.1,-2 0,-1.1 0.9,-2 2.1,-2 1.2,0 2.1,0.9 2.1,2 0,1.1 -1,2 -2.1,2 z M 33.552898,16.93 c -0.2,-1.6 -1.2,-2.9 -2.5,-3.9 l -0.5,-0.4 -0.4,0.5 c -0.8,0.9 -1.1,2.5 -1,3.7 0.1,0.9 0.4,1.8 0.9,2.5 -0.4,0.2 -0.9,0.4 -1.3,0.6 -0.9,0.3 -1.8,0.4 -2.7,0.4 H 0.15289773 l -0.1,0.6 c -0.2,1.9 0.1,3.9 0.9,5.7 l 0.39999997,0.7 v 0.1 c 2.4,4 6.7,5.8 11.4000003,5.8 9,0 16.4,-3.9 19.9,-12.3 2.3,0.1 4.6,-0.5 5.7,-2.7 l 0.3,-0.5 -0.5,-0.3 c -1.3,-0.8 -3.1,-0.9 -4.6,-0.5 z m -12.9,-1.6 h -3.9 v 3.9 h 3.9 z m 0,-4.9 h -3.9 v 3.9 h 3.9 z m 0,-5 h -3.9 v 3.9 h 3.9 z m 4.8,9.9 h -3.9 v 3.9 h 3.9 z m -14.5,0 H 7.0528977 v 3.9 h 3.9000003 z m 4.9,0 h -3.9 v 3.9 h 3.9 z m -9.7000003,0 h -3.9 v 3.9 h 3.9 z m 9.7000003,-4.9 h -3.9 v 3.9 h 3.9 z m -4.9,0 H 7.0528977 v 3.9 h 3.9000003 z"
     inkscape:connector-curvature="0"
     style="fill:#061d2f" />
  <defs
     id="defs8">
    <path
       id="SVGID_2_"
       d="m 8.7,24 c -1.1,0 -2.1,-0.9 -2.1,-2 0,-1.1 0.9,-2 2.1,-2 1.2,0 2.1,0.9 2.1,2 0,1.1 -1,2 -2.1,2 z M 34.5,13.1 C 34.3,11.5 33.3,10.2 32,9.2 L 31.5,8.8 31.1,9.3 c -0.8,0.9 -1.1,2.5 -1,3.7 0.1,0.9 0.4,1.8 0.9,2.5 -0.4,0.2 -0.9,0.4 -1.3,0.6 -0.9,0.3 -1.8,0.4 -2.7,0.4 H 1.1 L 1,17.1 C 0.8,19 1.1,21 1.9,22.8 l 0.4,0.7 v 0.1 c 2.4,4 6.7,5.8 11.4,5.8 9,0 16.4,-3.9 19.9,-12.3 2.3,0.1 4.6,-0.5 5.7,-2.7 l 0.3,-0.5 -0.5,-0.3 C 37.8,12.8 36,12.7 34.5,13.1 Z M 21.6,11.5 h -3.9 v 3.9 h 3.9 z m 0,-4.9 h -3.9 v 3.9 h 3.9 z m 0,-5 h -3.9 v 3.9 h 3.9 z m 4.8,9.9 h -3.9 v 3.9 h 3.9 z m -14.5,0 H 8 v 3.9 h 3.9 z m 4.9,0 h -3.9 v 3.9 h 3.9 z m -9.7,0 H 3.2 v 3.9 h 3.9 z m 9.7,-4.9 h -3.9 v 3.9 h 3.9 z m -4.9,0 H 8 v 3.9 h 3.9 z"
       inkscape:connector-curvature="0" />
  </defs>
  <clipPath
     id="SVGID_4_">
    <use
       xlink:href="#SVGID_2_"
       overflow="visible"
       id="use10"
       style="overflow:visible"
       x="0"
       y="0"
       width="100%"
       height="100%" />
  </clipPath>
  <g
     class="st1"
     clip-path="url(#SVGID_4_)"
     id="g14"
     transform="translate(-0.94710227,3.83)">
    <path
       id="SVGID_3_"
       class="st0"
       d="M -48.8,-21 H 1226 V 130.4 H -48.8 Z"
       inkscape:connector-curvature="0"
       style="fill:#061d2f" />
  </g>
</svg>
