<?xml version="1.0" encoding="UTF-8" standalone="no"?>
<svg
   xmlns:dc="http://purl.org/dc/elements/1.1/"
   xmlns:cc="http://creativecommons.org/ns#"
   xmlns:rdf="http://www.w3.org/1999/02/22-rdf-syntax-ns#"
   xmlns:svg="http://www.w3.org/2000/svg"
   xmlns="http://www.w3.org/2000/svg"
   xmlns:sodipodi="http://sodipodi.sourceforge.net/DTD/sodipodi-0.dtd"
   xmlns:inkscape="http://www.inkscape.org/namespaces/inkscape"
   width="2500"
   height="2500"
   viewBox="0 0 256 255.96217"
   preserveAspectRatio="xMidYMid"
   version="1.1"
   id="svg8"
   sodipodi:docname="kubernetes.svg"
   inkscape:version="0.92.4 (5da689c313, 2019-01-14)">
  <metadata
     id="metadata14">
    <rdf:RDF>
      <cc:Work
         rdf:about="">
        <dc:format>image/svg+xml</dc:format>
        <dc:type
           rdf:resource="http://purl.org/dc/dcmitype/StillImage" />
        <dc:title></dc:title>
      </cc:Work>
    </rdf:RDF>
  </metadata>
  <defs
     id="defs12" />
  <sodipodi:namedview
     pagecolor="#ffffff"
     bordercolor="#666666"
     borderopacity="1"
     objecttolerance="10"
     gridtolerance="10"
     guidetolerance="10"
     inkscape:pageopacity="0"
     inkscape:pageshadow="2"
     inkscape:window-width="1920"
     inkscape:window-height="1017"
     id="namedview10"
     showgrid="false"
     inkscape:zoom="0.097039474"
     inkscape:cx="-22.677966"
     inkscape:cy="1216"
     inkscape:window-x="-8"
     inkscape:window-y="-8"
     inkscape:window-maximized="1"
     inkscape:current-layer="svg8" />
  <g
     id="g19"
     transform="translate(0,-3.513615)">
    <path
       style="fill:#326de6"
       inkscape:connector-curvature="0"
       id="path2"
       d="m 82.085,251.8972 c -5.946,0 -11.561,-2.642 -15.36,-7.432 L 8.92,172.6202 c -3.799,-4.79 -5.285,-10.9 -3.799,-16.847 l 20.645,-89.682 c 1.321,-5.946 5.285,-10.736 10.736,-13.378 l 83.571,-39.97 c 2.643,-1.32 5.616,-1.981 8.589,-1.981 2.973,0 5.945,0.66 8.588,1.982 l 83.572,39.804 c 5.45,2.642 9.414,7.432 10.735,13.378 l 20.645,89.682 c 1.322,5.946 0,12.057 -3.798,16.847 l -57.807,71.845 c -3.799,4.624 -9.414,7.432 -15.36,7.432 l -93.15,0.165 z" />
    <path
       style="fill:#ffffff"
       inkscape:connector-curvature="0"
       id="path4"
       d="m 128.495,14.8912 c 2.313,0 4.625,0.495 6.772,1.486 l 83.572,39.804 c 4.294,2.147 7.597,6.111 8.588,10.736 l 20.645,89.682 c 1.156,4.79 0,9.745 -3.138,13.543 l -57.806,71.846 c -2.973,3.798 -7.598,5.945 -12.387,5.945 H 82.085 c -4.79,0 -9.414,-2.147 -12.387,-5.945 l -57.806,-71.846 c -2.973,-3.798 -4.13,-8.753 -3.138,-13.543 l 20.645,-89.682 c 1.156,-4.79 4.294,-8.754 8.588,-10.736 l 83.573,-39.968 c 2.147,-0.826 4.624,-1.321 6.936,-1.321 z m 0,-7.763 c -3.468,0 -6.936,0.826 -10.24,2.312 l -83.571,39.97 c -6.607,3.138 -11.231,8.918 -12.883,16.02 l -20.645,89.683 c -1.651,7.102 0,14.369 4.625,20.15 l 57.806,71.845 c 4.46,5.615 11.231,8.753 18.333,8.753 h 92.655 c 7.102,0 13.874,-3.138 18.333,-8.753 l 57.807,-71.846 c 4.624,-5.615 6.276,-13.047 4.624,-20.15 l -20.645,-89.682 c -1.651,-7.102 -6.276,-12.882 -12.882,-16.02 L 138.57,9.4392 c -3.138,-1.485 -6.606,-2.311 -10.075,-2.311 z" />
    <path
       style="fill:#ffffff"
       inkscape:connector-curvature="0"
       id="path6"
       d="m 212.232,149.4972 c -0.165,0 -0.165,0 0,0 h -0.165 c -0.165,0 -0.33,0 -0.33,-0.165 -0.33,0 -0.66,-0.165 -0.991,-0.165 -1.156,-0.165 -2.147,-0.33 -3.138,-0.33 -0.496,0 -0.991,0 -1.652,-0.166 h -0.165 c -3.468,-0.33 -6.276,-0.66 -8.919,-1.486 -1.156,-0.496 -1.486,-1.156 -1.817,-1.817 0,-0.165 -0.165,-0.165 -0.165,-0.33 l -2.147,-0.66 a 65.33,65.33 0 0 0 -1.156,-23.289 68.054,68.054 0 0 0 -9.249,-21.636 l 1.652,-1.486 v -0.33 c 0,-0.826 0.165,-1.652 0.825,-2.478 1.982,-1.817 4.46,-3.303 7.433,-5.12 0.495,-0.33 0.99,-0.495 1.486,-0.826 0.991,-0.495 1.817,-0.99 2.808,-1.651 0.165,-0.165 0.495,-0.33 0.826,-0.66 0.165,-0.166 0.33,-0.166 0.33,-0.331 2.312,-1.982 2.808,-5.285 1.156,-7.433 -0.826,-1.156 -2.312,-1.816 -3.799,-1.816 -1.32,0 -2.477,0.495 -3.633,1.321 l -0.33,0.33 c -0.33,0.165 -0.496,0.496 -0.826,0.661 -0.826,0.826 -1.487,1.486 -2.147,2.312 -0.33,0.33 -0.66,0.826 -1.156,1.156 -2.313,2.478 -4.46,4.46 -6.607,5.946 -0.495,0.33 -0.99,0.496 -1.486,0.496 -0.33,0 -0.661,0 -0.991,-0.166 h -0.33 l -1.983,1.322 c -2.147,-2.312 -4.459,-4.294 -6.771,-6.276 a 65.958,65.958 0 0 0 -34.519,-13.709 l -0.165,-2.147 -0.33,-0.33 c -0.496,-0.496 -1.156,-0.991 -1.322,-2.147 -0.165,-2.643 0.166,-5.616 0.496,-8.919 v -0.165 c 0,-0.496 0.165,-1.156 0.33,-1.652 0.165,-0.99 0.33,-1.982 0.496,-3.138 v -1.486 c 0,-2.973 -2.313,-5.45 -5.12,-5.45 -1.322,0 -2.643,0.66 -3.634,1.651 -0.99,0.991 -1.486,2.312 -1.486,3.799 v 1.321 c 0,1.156 0.165,2.147 0.495,3.138 0.165,0.496 0.165,0.991 0.33,1.652 v 0.165 c 0.33,3.303 0.826,6.276 0.496,8.919 -0.165,1.156 -0.826,1.651 -1.321,2.147 l -0.33,0.33 -0.166,2.147 c -2.973,0.33 -5.946,0.66 -8.919,1.321 -12.717,2.808 -23.948,9.25 -32.701,18.498 l -1.652,-1.156 h -0.33 c -0.33,0 -0.661,0.165 -0.991,0.165 -0.496,0 -0.991,-0.165 -1.487,-0.495 -2.147,-1.486 -4.294,-3.634 -6.606,-6.111 -0.33,-0.33 -0.66,-0.826 -1.156,-1.156 -0.661,-0.826 -1.322,-1.487 -2.148,-2.312 -0.165,-0.166 -0.495,-0.33 -0.825,-0.661 -0.165,-0.165 -0.33,-0.165 -0.33,-0.33 a 5.772,5.772 0 0 0 -3.634,-1.322 c -1.487,0 -2.973,0.661 -3.799,1.817 -1.652,2.147 -1.156,5.45 1.156,7.432 0.165,0 0.165,0.166 0.33,0.166 0.33,0.165 0.496,0.495 0.826,0.66 0.991,0.66 1.817,1.156 2.808,1.652 0.496,0.165 0.991,0.495 1.487,0.826 2.972,1.816 5.45,3.303 7.432,5.12 0.826,0.825 0.826,1.651 0.826,2.477 v 0.33 l 1.651,1.487 c -0.33,0.495 -0.66,0.826 -0.826,1.321 -8.258,13.048 -11.396,28.408 -9.249,43.603 l -2.147,0.66 c 0,0.166 -0.165,0.166 -0.165,0.33 -0.33,0.661 -0.826,1.322 -1.817,1.817 -2.477,0.826 -5.45,1.157 -8.918,1.487 h -0.166 c -0.495,0 -1.156,0 -1.651,0.165 -0.991,0 -1.982,0.165 -3.138,0.33 -0.33,0 -0.66,0.166 -0.991,0.166 -0.165,0 -0.33,0 -0.496,0.165 -2.973,0.66 -4.79,3.468 -4.294,6.11 0.496,2.313 2.643,3.8 5.285,3.8 0.496,0 0.826,0 1.322,-0.166 0.165,0 0.33,0 0.33,-0.165 0.33,0 0.66,-0.165 0.99,-0.165 1.157,-0.33 1.983,-0.66 2.974,-1.156 0.495,-0.165 0.99,-0.496 1.486,-0.66 h 0.165 c 3.138,-1.157 5.946,-2.148 8.589,-2.478 h 0.33 c 0.991,0 1.652,0.495 2.147,0.826 0.165,0 0.165,0.165 0.33,0.165 l 2.313,-0.33 c 3.964,12.221 11.561,23.122 21.636,31.05 2.312,1.816 4.624,3.303 7.102,4.79 l -0.991,2.146 c 0,0.166 0.165,0.166 0.165,0.33 0.33,0.661 0.66,1.487 0.33,2.643 -0.99,2.478 -2.477,4.955 -4.294,7.763 v 0.165 c -0.33,0.496 -0.66,0.826 -0.99,1.321 -0.661,0.826 -1.157,1.652 -1.818,2.643 -0.165,0.165 -0.33,0.495 -0.495,0.826 0,0.165 -0.165,0.33 -0.165,0.33 -1.321,2.808 -0.33,5.946 2.147,7.102 0.66,0.33 1.321,0.496 1.982,0.496 1.982,0 3.964,-1.322 4.955,-3.139 0,-0.165 0.165,-0.33 0.165,-0.33 0.165,-0.33 0.33,-0.66 0.495,-0.826 0.496,-1.156 0.661,-1.982 0.991,-2.973 l 0.496,-1.486 c 1.156,-3.303 1.982,-5.946 3.468,-8.258 0.66,-0.991 1.487,-1.156 2.147,-1.487 0.165,0 0.165,0 0.33,-0.165 l 1.157,-2.147 c 7.267,2.808 15.195,4.294 23.122,4.294 4.79,0 9.745,-0.495 14.37,-1.651 a 73.402,73.402 0 0 0 8.588,-2.478 l 0.99,1.817 c 0.166,0 0.166,0 0.331,0.165 0.826,0.165 1.486,0.496 2.147,1.487 1.321,2.312 2.312,5.12 3.468,8.258 v 0.165 l 0.496,1.486 c 0.33,0.991 0.495,1.982 0.99,2.973 0.166,0.33 0.331,0.496 0.496,0.826 0,0.165 0.166,0.33 0.166,0.33 0.99,1.982 2.972,3.139 4.954,3.139 0.661,0 1.322,-0.166 1.982,-0.496 1.156,-0.66 2.147,-1.652 2.478,-2.973 0.33,-1.321 0.33,-2.808 -0.33,-4.129 0,-0.165 -0.166,-0.165 -0.166,-0.33 -0.165,-0.33 -0.33,-0.66 -0.495,-0.826 -0.496,-0.991 -1.156,-1.817 -1.817,-2.643 -0.33,-0.495 -0.66,-0.825 -0.99,-1.32 v -0.166 c -1.818,-2.808 -3.47,-5.285 -4.295,-7.763 -0.33,-1.156 0,-1.816 0.165,-2.642 0,-0.165 0.165,-0.165 0.165,-0.33 l -0.826,-1.982 c 8.754,-5.12 16.186,-12.388 21.802,-21.306 2.973,-4.625 5.285,-9.745 6.936,-14.865 l 1.982,0.33 c 0.166,0 0.166,-0.165 0.33,-0.165 0.661,-0.33 1.157,-0.825 2.148,-0.825 h 0.33 c 2.643,0.33 5.45,1.32 8.589,2.477 h 0.165 c 0.495,0.165 0.99,0.495 1.486,0.66 0.991,0.496 1.817,0.826 2.973,1.157 0.33,0 0.66,0.165 0.991,0.165 0.165,0 0.33,0 0.495,0.165 0.496,0.165 0.826,0.165 1.322,0.165 2.477,0 4.624,-1.651 5.285,-3.798 0,-1.982 -1.817,-4.625 -4.79,-5.45 z m -76.47,-8.093 -7.267,3.469 -7.267,-3.469 -1.816,-7.762 4.954,-6.276 h 8.093 l 4.955,6.276 -1.651,7.762 z m 43.108,-17.176 a 52.078,52.078 0 0 1 1.156,16.68 l -25.27,-7.266 c -2.312,-0.66 -3.633,-2.973 -3.138,-5.285 0.165,-0.661 0.496,-1.322 0.991,-1.817 l 19.985,-18.003 c 2.807,4.625 4.954,9.91 6.276,15.69 z m -14.204,-25.6 -21.636,15.36 c -1.817,1.156 -4.295,0.825 -5.781,-0.991 -0.495,-0.496 -0.66,-1.157 -0.826,-1.817 l -1.486,-26.922 a 50.13,50.13 0 0 1 29.729,14.37 z m -47.897,-13.545 c 1.817,-0.33 3.468,-0.66 5.285,-0.99 l -1.486,26.425 c -0.165,2.312 -1.982,4.294 -4.46,4.294 -0.66,0 -1.486,-0.165 -1.982,-0.495 L 92.16,98.6282 c 6.772,-6.772 15.195,-11.397 24.609,-13.544 z m -32.537,23.453 19.654,17.507 c 1.817,1.487 1.982,4.294 0.496,6.111 -0.496,0.66 -1.156,1.156 -1.982,1.322 l -25.6,7.432 c -0.991,-11.231 1.486,-22.627 7.432,-32.372 z m -4.46,44.759 26.262,-4.46 c 2.147,-0.165 4.129,1.322 4.624,3.469 0.165,0.99 0.165,1.817 -0.165,2.643 l -10.075,24.278 c -9.249,-5.946 -16.681,-15.03 -20.645,-25.93 z m 60.285,32.867 c -3.799,0.826 -7.598,1.321 -11.562,1.321 -5.78,0 -11.396,-0.99 -16.68,-2.642 l 13.047,-23.618 c 1.321,-1.487 3.468,-2.147 5.285,-1.156 a 7.04,7.04 0 0 1 1.982,1.816 l 12.717,22.958 c -1.486,0.495 -3.138,0.826 -4.79,1.321 z m 32.206,-22.957 c -4.129,6.606 -9.58,11.891 -15.855,16.02 l -10.405,-24.94 c -0.496,-1.981 0.33,-4.128 2.312,-5.12 0.66,-0.33 1.486,-0.495 2.312,-0.495 l 26.426,4.46 c -0.991,3.633 -2.643,6.937 -4.79,10.075 z" />
  </g>
</svg>
