<?xml version="1.0" encoding="UTF-8" standalone="no"?>
<svg
   xmlns:dc="http://purl.org/dc/elements/1.1/"
   xmlns:cc="http://creativecommons.org/ns#"
   xmlns:rdf="http://www.w3.org/1999/02/22-rdf-syntax-ns#"
   xmlns:svg="http://www.w3.org/2000/svg"
   xmlns="http://www.w3.org/2000/svg"
   xmlns:sodipodi="http://sodipodi.sourceforge.net/DTD/sodipodi-0.dtd"
   xmlns:inkscape="http://www.inkscape.org/namespaces/inkscape"
   width="2500"
   height="2500"
   viewBox="0 0 256 256.01795"
   preserveAspectRatio="xMinYMin meet"
   version="1.1"
   id="svg6"
   sodipodi:docname="meteor.svg"
   inkscape:version="0.92.4 (5da689c313, 2019-01-14)">
  <metadata
     id="metadata12">
    <rdf:RDF>
      <cc:Work
         rdf:about="">
        <dc:format>image/svg+xml</dc:format>
        <dc:type
           rdf:resource="http://purl.org/dc/dcmitype/StillImage" />
        <dc:title></dc:title>
      </cc:Work>
    </rdf:RDF>
  </metadata>
  <defs
     id="defs10" />
  <sodipodi:namedview
     pagecolor="#ffffff"
     bordercolor="#666666"
     borderopacity="1"
     objecttolerance="10"
     gridtolerance="10"
     guidetolerance="10"
     inkscape:pageopacity="0"
     inkscape:pageshadow="2"
     inkscape:window-width="1920"
     inkscape:window-height="1017"
     id="namedview8"
     showgrid="false"
     inkscape:zoom="0.09628723"
     inkscape:cx="-32.620763"
     inkscape:cy="1225.5"
     inkscape:window-x="-8"
     inkscape:window-y="-8"
     inkscape:window-maximized="1"
     inkscape:current-layer="svg6" />
  <g
     id="g4"
     style="fill:#df4f4f"
     transform="translate(0,2.2816516)">
    <path
       d="M 0.439,0.438 219.3,232.266 c 0,0 7.457,5.259 13.158,-0.877 5.702,-6.135 1.316,-12.27 1.316,-12.27 L 0.44,0.439 Z M 69.738,22.35 236.406,202.027 c 0,0 7.456,5.26 13.158,-0.876 5.702,-6.135 1.316,-12.27 1.316,-12.27 z M 21.053,69.242 187.72,248.919 c 0,0 7.456,5.259 13.158,-0.877 5.702,-6.135 1.316,-12.27 1.316,-12.27 z M 128.32,41.194 244.762,166.724 c 0,0 5.21,3.674 9.193,-0.612 3.983,-4.287 0.919,-8.573 0.919,-8.573 L 128.321,41.194 Z m -91.228,82.389 116.441,125.53 c 0,0 5.21,3.674 9.193,-0.613 3.983,-4.286 0.919,-8.572 0.919,-8.572 z m 151.068,-55.218 52.775,57.067 c 0,0 2.577,1.722 4.547,-0.287 1.97,-2.008 0.455,-4.017 0.455,-4.017 z M 66.229,181.43 l 52.775,57.067 c 0,0 2.577,1.722 4.547,-0.286 1.97,-2.009 0.455,-4.017 0.455,-4.017 z"
       id="path2"
       inkscape:connector-curvature="0" />
  </g>
</svg>
