<?xml version="1.0" encoding="UTF-8" standalone="no"?>
<svg
   xmlns:dc="http://purl.org/dc/elements/1.1/"
   xmlns:cc="http://creativecommons.org/ns#"
   xmlns:rdf="http://www.w3.org/1999/02/22-rdf-syntax-ns#"
   xmlns:svg="http://www.w3.org/2000/svg"
   xmlns="http://www.w3.org/2000/svg"
   xmlns:sodipodi="http://sodipodi.sourceforge.net/DTD/sodipodi-0.dtd"
   xmlns:inkscape="http://www.inkscape.org/namespaces/inkscape"
   width="693.91602"
   height="693.91602"
   viewBox="0 0 142.114 142.0922"
   version="1.1"
   id="svg20"
   sodipodi:docname="mongodb.svg"
   inkscape:version="0.92.4 (5da689c313, 2019-01-14)">
  <metadata
     id="metadata26">
    <rdf:RDF>
      <cc:Work
         rdf:about="">
        <dc:format>image/svg+xml</dc:format>
        <dc:type
           rdf:resource="http://purl.org/dc/dcmitype/StillImage" />
        <dc:title></dc:title>
      </cc:Work>
    </rdf:RDF>
  </metadata>
  <defs
     id="defs24" />
  <sodipodi:namedview
     pagecolor="#ffffff"
     bordercolor="#666666"
     borderopacity="1"
     objecttolerance="10"
     gridtolerance="10"
     guidetolerance="10"
     inkscape:pageopacity="0"
     inkscape:pageshadow="2"
     inkscape:window-width="1080"
     inkscape:window-height="1857"
     id="namedview22"
     showgrid="false"
     inkscape:zoom="0.1156"
     inkscape:cx="-886.67798"
     inkscape:cy="338.46191"
     inkscape:window-x="1912"
     inkscape:window-y="215"
     inkscape:window-maximized="1"
     inkscape:current-layer="svg20" />
  <g
     id="g18"
     transform="translate(39.23864)">
    <path
       d="m 35.053044,142.1028 -3.783,-1.293 c 0,0 0.462,-19.286 -6.46,-20.67 -4.613,-5.353 0.74,-227.013 17.35,-0.739 0,0 -5.722,2.86 -6.737,7.752 -1.108,4.799 -0.37,14.95 -0.37,14.95 z"
       id="path6"
       inkscape:connector-curvature="0"
       style="fill:#ffffff;fill-rule:evenodd" />
    <path
       d="m 35.053044,142.1028 -3.783,-1.293 c 0,0 0.462,-19.286 -6.46,-20.67 -4.613,-5.353 0.74,-227.013 17.35,-0.739 0,0 -5.722,2.86 -6.737,7.752 -1.108,4.799 -0.37,14.95 -0.37,14.95 z"
       id="path8"
       inkscape:connector-curvature="0"
       style="fill:#a6a385;fill-rule:evenodd" />
    <path
       d="m 37.084044,123.4618 c 0,0 33.13,-21.779 25.377,-67.089998 -7.474,-32.943 -25.1,-43.74 -27.038,-47.8930002 -2.122,-2.953 -4.153,-8.12 -4.153,-8.12 l 1.385,91.6340002 c 0,0.093 -2.861,28.053998 4.43,31.469998"
       id="path10"
       inkscape:connector-curvature="0"
       style="fill:#ffffff;fill-rule:evenodd" />
    <path
       d="m 37.084044,123.4618 c 0,0 33.13,-21.779 25.377,-67.089998 -7.474,-32.943 -25.1,-43.74 -27.038,-47.8930002 -2.122,-2.953 -4.153,-8.12 -4.153,-8.12 l 1.385,91.6340002 c 0,0.093 -2.861,28.053998 4.43,31.469998"
       id="path12"
       inkscape:connector-curvature="0"
       style="fill:#499d4a;fill-rule:evenodd" />
    <path
       d="m 29.333044,124.6608 c 0,0 -31.0999998,-21.225 -29.25399982,-58.597998 1.75300002,-37.374 23.71599982,-55.738 27.96099982,-59.0600002 2.769,-2.953 2.861,-4.061 3.046,-7.014 1.938,4.153 1.569,62.1060002 1.845,68.9340002 0.83,26.3 -1.476,50.755998 -3.598,55.737998 z"
       id="path14"
       inkscape:connector-curvature="0"
       style="fill:#ffffff;fill-rule:evenodd" />
    <path
       d="m 29.333044,124.6608 c 0,0 -31.0999998,-21.225 -29.25399982,-58.597998 1.75300002,-37.374 23.71599982,-55.738 27.96099982,-59.0600002 2.769,-2.953 2.861,-4.061 3.046,-7.014 1.938,4.153 1.569,62.1060002 1.845,68.9340002 0.83,26.3 -1.476,50.755998 -3.598,55.737998 z"
       id="path16"
       inkscape:connector-curvature="0"
       style="fill:#58aa50;fill-rule:evenodd" />
  </g>
</svg>
